#!OML:ASF F:\VICON\USERDATA\INSTALL\rory3\rory3.ASF
:FULLY-SPECIFIED
:DEGREES
62
root 0.7027004175957712 17.69391427045882 14.644036149915905 -1.2658744867249139 -2.190204071598808 -7.398420185791474
lfemur -24.202596388687244 -4.576172564699811 -11.793164157145153
ltibia 19.18370998965449
lfoot -4.464874474750722 -1.9616542557989396
ltoes -13.718453396137438
rfemur 7.989676629479716 5.826865172415674 34.219046221619834
rtibia 25.55960943262344
rfoot -10.808083922011507 -7.30595411611276
rtoes 1.8339519240013609
lowerback 9.904626588097672 2.1949579938401915 6.46363244709378
upperback -0.5193002376549738 3.847747636886928 1.9649611313281774
thorax -6.0756062208347865 1.6840928271096471 -2.642849109497827
lowerneck -16.768012495138525 -3.645896841203105 -1.5832598672883833
upperneck 21.48559058867145 -5.0930948461376095 1.6643475175718399
head 9.660386251096556 -2.303193657886751 0.021716765420620815
lclavicle 2.9947257449099366e-16 5.531106581131203e-17
lhumerus -34.08026522774401 2.4135431969883774 80.65763109513018
lradius 30.652584781422647
lwrist 9.356099812839277
lhand -29.43270961144719 18.720431922986315
lfingers 7.125020000000001
lthumb -2.6968076297174943 48.625315746205374
rclavicle 2.989368071402147e-16 5.518970001376333e-17
rhumerus -25.687459815171266 -15.355606623941414 -78.62374908770954
rradius 33.64458920020022
rwrist -0.19377158673774053
rhand -19.09591433584174 24.408306848215965
rfingers 7.125020000000001
rthumb 7.20956815655621 -5.171468707589536
63
root 0.7950369211432644 17.738257930644643 15.620008587683191 -1.7750576645139673 -2.854293222695467 -6.156091463361315
lfemur -24.183735445984848 -4.520874824114551 -14.017751148664338
ltibia 24.17800994967468
lfoot -3.286094438242937 -4.825959928661084
ltoes -13.338308945627421
rfemur 8.65079594633467 5.613851551701037 32.557089767557166
rtibia 29.714107084434183
rfoot -8.26917261602784 -6.603857381622674
rtoes 2.653197546808827
lowerback 9.62232197635933 2.4594243799865794 5.425731471594616
upperback -0.3945512465871811 3.9369380844289843 1.6498390188864522
thorax -5.896092658838609 1.7611006569197685 -2.510681951687988
lowerneck -16.68102753371802 -3.7259953304305133 -1.5883619430014
upperneck 21.51711911143029 -5.2586976216524235 1.7596014477670363
head 9.670953987878747 -2.36687843864772 0.027089445580004978
lclavicle 2.9883467252895002e-16 5.4730235593179315e-17
lhumerus -33.66718713242588 2.640799005116021 80.52120313501439
lradius 31.10047298651962
lwrist 8.92628727815219
lhand -29.25994420488605 18.049799187636356
lfingers 7.125020000000001
lthumb -2.507160197191082 48.090811114265286
rclavicle 2.9941050106897316e-16 5.553017874286288e-17
rhumerus -26.835519740276958 -16.127169758548533 -78.36044764055184
rradius 33.349436969324564
rwrist 0.20034500521598275
rhand -19.054857897794278 24.559446023563616
rfingers 7.125020000000001
rthumb 7.241020131245319 -5.123184181449048
64
root 0.8819569523058428 17.804530872618958 16.79301128897905 -2.276743305544246 -2.405813998297537 -3.8800325679526466
lfemur -22.72508967575157 -4.694941363098516 -17.412077886705212
ltibia 27.697950650623145
lfoot -2.0400104835829085 -6.346543732982342
ltoes -13.910592873943322
rfemur 7.086141664772464 4.090885259518509 29.523377890693403
rtibia 36.943515177436126
rfoot -4.304113277591933 -5.864721726638984
rtoes 5.711789989557035
lowerback 9.327189968289089 2.5495630068799042 3.3500459933557636
upperback -0.3210326909299422 3.6931416000379276 1.0749222807654282
thorax -5.777883750808026 1.7098924033932248 -2.1436313592066316
lowerneck -16.523130390330568 -3.7862499286386555 -1.6036455969125663
upperneck 21.6632310597229 -5.3893162905182885 1.8265390171279206
head 9.709271538298037 -2.418200648449774 0.031324578842223366
lclavicle 2.975225908108791e-16 5.38545610136608e-17
lhumerus -33.1597966302806 2.8288527519777906 80.50168536917033
lradius 31.468789586689724
lwrist 8.97786731884093
lhand -29.19340913428206 17.348554545831938
lfingers 7.125020000000001
lthumb -2.477272163397989 47.32307694977732
rclavicle 2.994243777298262e-16 5.554032031896527e-17
rhumerus -28.107691930132177 -16.976456852813275 -78.03356822029221
rradius 32.65613626894529
rwrist 0.878685551959745
rhand -18.98150414924376 24.498253224932146
rfingers 7.125020000000001
rthumb 7.314822918422621 -5.272222635275558
65
root 0.9624266319222421 17.871675354387353 17.313229564772975 -3.2178417007709816 -2.592979973465811 -3.987835229466566
lfemur -21.198929062380635 -3.715409085629129 -18.491830283036993
ltibia 31.232543096360835
lfoot -1.4910795945196016 -5.695228754353976
ltoes -13.76706094361748
rfemur 4.259862285520105 3.1294936861585922 28.741880474118474
rtibia 45.22004509599145
rfoot 1.3473557562038403 -5.5307489772616005
rtoes 11.355360715505682
lowerback 9.697370411724705 2.570258292246943 3.2215250204958448
upperback -0.47135246027078465 3.6992561482707833 0.8748687838471766
thorax -5.960707249158726 1.7094107239185985 -1.9985537151172486
lowerneck -16.3548788223084 -3.8018480249668456 -1.603746102805609
upperneck 21.872011519206765 -5.440998291637911 1.8402344059520708
head 9.770684064742973 -2.439598843932239 0.0303941041735398
lclavicle 2.9657968433838437e-16 5.365683191844505e-17
lhumerus -32.64731129735962 2.8515722810742674 80.50972960609775
lradius 31.77338271122308
lwrist 9.366251965972566
lhand -29.226833713812372 16.89941621188299
lfingers 7.125020000000001
lthumb -2.6035106972816475 46.63852274157862
rclavicle 2.994046057110451e-16 5.552629848142793e-17
rhumerus -29.2439930659109 -17.729199468053658 -77.85361519776689
rradius 31.82420827335694
rwrist 1.6581766090566474
rhand -18.844173852039056 24.182222631174422
rfingers 7.125020000000001
rthumb 7.439288931166642 -5.613498172752431
66
root 1.0462303673100959 17.9358810187708 18.102366587605204 -3.703467835573419 -3.333990285463423 -2.290179747084829
lfemur -18.172253228926582 -3.0756153653211706 -21.03054957150092
ltibia 32.024108537937366
lfoot -3.057428715815437 -4.430609986575066
ltoes -13.676110786920976
rfemur -0.3174315373572245 2.982277368787593 26.035734856830896
rtibia 54.808959967169756
rfoot 6.000406459348343 -6.31922963825042
rtoes 15.883144734330674
lowerback 10.160859089566106 2.676681336177237 1.8105644254937232
upperback -0.40236563156285865 3.638985795575339 0.543552758706876
thorax -6.097504761025688 1.6946496204702548 -1.657440016278428
lowerneck -16.292098133020474 -3.746528892556806 -1.5769528556139476
upperneck 22.005144619850462 -5.364496320586304 1.7956481802240796
head 9.817496353728506 -2.412334537887734 0.028900303411211442
lclavicle 3.003401476005396e-16 5.597528902733978e-17
lhumerus -32.22575650722618 2.565267590978457 80.49656410980947
lradius 32.05878541291705
lwrist 9.764237288381723
lhand -29.32647346182242 16.799265802527476
lfingers 7.125020000000001
lthumb -2.765030285842742 46.38817138923755
rclavicle 2.99589279508941e-16 5.565906088782236e-17
rhumerus -30.096030250459222 -18.409235350037804 -77.86470774191213
rradius 30.971085013813223
rwrist 2.408056593894381
rhand -18.62419029622545 23.685778396848814
rfingers 7.125020000000001
rthumb 7.634823169609874 -6.086749033948101
67
root 1.0910932338346178 17.95406248773286 18.76603560615944 -4.093259379204937 -3.3458698316192232 -2.1306110472299586
lfemur -15.172887377382159 -2.765699003369085 -21.8940849742481
ltibia 31.62243361980161
lfoot -5.330480562147139 -3.8582245993515043
ltoes -14.24604001869075
rfemur -5.067666544957211 2.027444511214373 25.323166080535714
rtibia 63.45900004302069
rfoot 5.736586950099597 -8.094767332391477
rtoes 14.38818409907806
lowerback 10.78339034219879 2.482122085686956 1.394747695291956
upperback -0.29655391437680023 3.379592675940046 0.4856414907171078
thorax -6.268770800911683 1.593629962140359 -1.1644660308882282
lowerneck -16.24812102467195 -3.6349136174931127 -1.5771795213983268
upperneck 21.96171778654445 -5.175562649769225 1.7523347575325419
head 9.813794895877347 -2.3404237027191006 0.045400804719719384
lclavicle 3.0020001378930033e-16 5.579764319202419e-17
lhumerus -31.90387027158346 2.0642790826915327 80.4572936830908
lradius 32.37504976516244
lwrist 10.033643829310051
lhand -29.430865725081457 17.079608783583303
lfingers 7.125020000000001
lthumb -2.851784064138845 46.748450678650265
rclavicle 2.9906511247046938e-16 5.52825637770607e-17
rhumerus -30.603182406877778 -18.92398402072083 -77.81825331085611
rradius 29.96755192275093
rwrist 3.196442682771314
rhand -18.359208828560515 23.091299095561503
rfingers 7.125020000000001
rthumb 7.881995205567418 -6.635724030066298
68
root 1.1236000615465878 17.962841077739913 19.520599127159684 -4.459185812965897 -2.876921041414306 -1.76697597610376
lfemur -12.193525209931733 -2.411211402741433 -22.671116922508034
ltibia 30.762437056007315
lfoot -6.587145529624238 -3.097953570582854
ltoes -14.572588677942957
rfemur -9.746219002598837 0.6134723719064126 24.660895149504928
rtibia 69.79010330389818
rfoot 1.985733351975747 -9.587729310527214
rtoes 10.290527204984286
lowerback 11.058769978552824 2.0788748036279494 0.9943834955650053
upperback -0.1186702918818062 2.887366219714255 0.5292876479884765
thorax -6.380862617983028 1.371483934875868 -0.6015588791852482
lowerneck -16.18157175563275 -3.4856808773975403 -1.5915460609032825
upperneck 21.81054499641277 -4.907155835542188 1.6699951071311552
head 9.769487140914762 -2.237279813420008 0.0611103076083839
lclavicle 2.9960814491959515e-16 5.5335753273717707e-17
lhumerus -31.655933438277433 1.5997103955294394 80.38334858832359
lradius 32.724856675864004
lwrist 10.083901477830729
lhand -29.453994834769645 17.71579901375221
lfingers 7.125020000000001
lthumb -2.8429634188065585 47.465965943476434
rclavicle 2.984369152147724e-16 5.4831419468822024e-17
rhumerus -31.0672130768545 -19.553005681928454 -77.79020688243769
rradius 29.078996725192724
rwrist 3.933487836567219
rhand -18.061608617859648 22.509502920320934
rfingers 7.125020000000001
rthumb 8.163837677367862 -7.2174140174127235
69
root 1.12505468965462 17.953635326402615 20.503405920346616 -4.914691354368269 -2.90655374631119 -1.43436755360847
lfemur -9.551833713851968 -2.0286313740796746 -23.27622818225013
ltibia 29.93324728837497
lfoot -8.178945583036265 -2.3618006404793275
ltoes -15.455069955370014
rfemur -14.264416117408524 -0.2657746602145683 24.24114461951779
rtibia 73.12375789150421
rfoot -1.347227869459072 -10.016154382356362
rtoes 7.562134573813988
lowerback 11.283825771690756 1.6991171514684356 0.6401440238041797
upperback 0.011961860521513157 2.3530732821254317 0.6183432705382339
thorax -6.452654191982204 1.1297337856852196 -0.019205154709587946
lowerneck -16.057249376871187 -3.3320576638131367 -1.6420285203454048
upperneck 21.685609700454425 -4.616504954173349 1.564208412758894
head 9.719750570774753 -2.124971812914291 0.07606830385016303
lclavicle 3.002633197739962e-16 5.54777069112292e-17
lhumerus -31.32244383487897 1.2334117748005675 80.40208107186943
lradius 32.959831427262564
lwrist 9.795700183817978
lhand -29.350785432530863 18.58150310614246
lfingers 7.125020000000001
lthumb -2.7128694744137416 48.33860225300889
rclavicle 2.9816389454517124e-16 5.463563901152929e-17
rhumerus -31.68815684548208 -20.347681998681892 -77.6991574159088
rradius 28.411912561678403
rwrist 4.343316223714966
rhand -17.779492123910536 22.14739279482863
rfingers 7.125020000000001
rthumb 8.444235292336575 -7.656830418220181
